<svg width="53" height="53" viewBox="0 0 53 53" fill="none" xmlns="http://www.w3.org/2000/svg">
<path d="M16.2401 24.528V20.9836C16.2401 20.7738 16.2401 20.6899 16.5139 20.6899C18.8614 20.6899 20.7694 20.5508 21.7168 21.1095C22.6664 21.666 22.7061 22.4345 22.7216 22.6641C22.737 22.8938 22.7304 23.2228 22.2887 24.0245C21.8471 24.8261 19.8706 24.8415 18.444 24.8415H16.5559C16.324 24.8415 16.2401 24.7576 16.2401 24.528ZM22.7459 28.2424C22.9646 28.5216 23.1207 28.8445 23.2036 29.1894C23.2866 29.5342 23.2944 29.8928 23.2265 30.2409C23.1586 30.589 23.0167 30.9185 22.8103 31.2069C22.6039 31.4954 22.3379 31.736 22.0304 31.9126C21.5786 32.1027 21.0939 32.2025 20.6038 32.2063H16.5338C16.324 32.2063 16.2401 32.2063 16.2401 31.9347V27.7389C16.2401 27.5291 16.2401 27.4452 16.5139 27.4452H19.2192C20.8975 27.4452 21.9464 27.2994 22.7459 28.2424Z" fill="#E9E9E9"/>
<path d="M37.5174 26.2991C37.4048 26.0337 37.2341 25.7971 37.0177 25.6068C36.8013 25.4164 36.5449 25.2771 36.2674 25.1993C35.7128 25.0478 35.1323 25.0157 34.5643 25.1051C33.9963 25.1946 33.4538 25.4036 32.9726 25.7183C32.493 26.2028 32.1832 26.8295 32.0893 27.5048C32.0893 27.7411 32.0893 27.7853 32.3697 27.7853H37.6035C37.8619 27.7853 37.8619 27.7853 37.8398 27.4606C37.815 27.0548 37.7066 26.6589 37.5174 26.2991ZM37.5174 26.2991C37.4048 26.0337 37.2319 25.7971 37.0155 25.6068C36.7991 25.4164 36.5449 25.2771 36.2674 25.1993C35.7128 25.0478 35.1323 25.0157 34.5643 25.1051C33.9963 25.1946 33.4538 25.4036 32.9726 25.7183C32.493 26.2028 32.1809 26.8295 32.0871 27.5048C32.0871 27.7411 32.0871 27.7853 32.3675 27.7853H37.6035C37.8619 27.7853 37.8619 27.7853 37.8398 27.4606C37.815 27.0548 37.7022 26.6589 37.5129 26.2991M39.9708 5.52084H14.1333C11.8491 5.52084 9.65851 6.42823 8.04336 8.04339C6.4282 9.65854 5.52081 11.8492 5.52081 14.1333V39.9708C5.52081 42.255 6.4282 44.4456 8.04336 46.0608C9.65851 47.676 11.8491 48.5833 14.1333 48.5833H39.9708C42.255 48.5833 44.4456 47.676 46.0608 46.0608C47.6759 44.4456 48.5833 42.255 48.5833 39.9708V14.1333C48.5833 11.8492 47.6759 9.65854 46.0608 8.04339C44.4456 6.42823 42.255 5.52084 39.9708 5.52084ZM31.5306 19.2346C31.5306 19.0646 31.5306 18.9983 31.7249 18.9983H38.701V20.8091C38.701 20.8091 38.7076 20.9372 38.5928 20.9372H31.8331C31.5306 20.9372 31.5306 20.9372 31.5306 20.6369V19.2346ZM25.0712 35.0617C22.4212 36.5038 17.967 35.923 12.6913 35.923V18.073H21.1094C23.2626 18.073 25.8242 18.6118 26.5132 20.8931C26.871 21.8894 26.8492 22.9826 26.4521 23.964C26.0549 24.9453 25.3102 25.7459 24.3601 26.2129C25.2358 26.537 26.0004 27.1052 26.5633 27.8502C27.1262 28.5952 27.4638 29.4859 27.5363 30.4168C27.6088 31.3478 27.4131 32.28 26.9723 33.1032C26.5315 33.9263 25.8641 34.606 25.0491 35.0617H25.0712ZM41.1125 29.9803H32.5C32.2637 29.9803 32.0473 30.1084 32.0893 30.411C32.3476 31.6808 32.9284 33.0168 34.2446 33.2111C34.9396 33.418 35.6838 33.3862 36.3586 33.1208C37.0334 32.8555 37.5999 32.3718 37.9679 31.747C37.9679 31.747 38.0761 31.6167 38.1401 31.6167H40.9403C40.9403 31.6167 41.1125 31.6167 41.0684 31.7669C40.7731 32.6031 40.336 33.3822 39.7765 34.0702C39.0281 34.785 38.125 35.3178 37.1374 35.6272C36.1497 35.9365 35.1041 36.0141 34.0816 35.8539C33.0591 35.6937 32.0873 35.3 31.2416 34.7035C30.3959 34.1069 29.6991 33.3234 29.2052 32.4139C28.9014 31.8074 28.712 31.1502 28.6465 30.475C28.2624 28.7781 28.556 26.9983 29.4646 25.5146C30.3733 24.031 31.8253 22.9606 33.5114 22.5316C38.3985 21.4761 41.499 24.8349 41.499 29.5718C41.5062 29.6272 41.5006 29.6835 41.4827 29.7363C41.4647 29.7892 41.4348 29.8372 41.3953 29.8767C41.3559 29.9162 41.3078 29.9461 41.255 29.964C41.2021 29.982 41.1458 29.9876 41.0904 29.9803H41.1125ZM36.2895 25.1993C35.7354 25.0456 35.1545 25.0139 34.5869 25.1066C34.0194 25.1949 33.5114 25.3031 32.9947 25.7183C32.4779 26.1312 32.2041 26.8291 32.1114 27.5048C32.1114 27.7411 32.1114 27.7853 32.3918 27.7853H37.6035C37.8619 27.7853 37.8619 27.7853 37.8398 27.4606C37.815 27.0548 37.7066 26.6589 37.5174 26.2991C37.4048 26.0337 37.2341 25.7971 37.0177 25.6068C36.8013 25.4164 36.5449 25.2771 36.2674 25.1993H36.2895Z" fill="#E9E9E9"/>
</svg>
