<svg width="52" height="52" viewBox="0 0 52 52" fill="none" xmlns="http://www.w3.org/2000/svg">
<path d="M16.9 4.33334H35.1C42.0333 4.33334 47.6666 9.96668 47.6666 16.9V35.1C47.6666 38.4329 46.3427 41.6293 43.986 43.986C41.6292 46.3427 38.4329 47.6667 35.1 47.6667H16.9C9.96665 47.6667 4.33331 42.0333 4.33331 35.1V16.9C4.33331 13.5671 5.6573 10.3707 8.014 8.01404C10.3707 5.65733 13.5671 4.33334 16.9 4.33334ZM16.4666 8.66668C14.398 8.66668 12.414 9.48846 10.9512 10.9512C9.48843 12.414 8.66665 14.398 8.66665 16.4667V35.5333C8.66665 39.845 12.155 43.3333 16.4666 43.3333H35.5333C37.602 43.3333 39.586 42.5116 41.0487 41.0488C42.5115 39.586 43.3333 37.602 43.3333 35.5333V16.4667C43.3333 12.155 39.845 8.66668 35.5333 8.66668H16.4666ZM37.375 11.9167C38.0933 11.9167 38.7822 12.202 39.2901 12.7099C39.798 13.2178 40.0833 13.9067 40.0833 14.625C40.0833 15.3433 39.798 16.0322 39.2901 16.5401C38.7822 17.048 38.0933 17.3333 37.375 17.3333C36.6567 17.3333 35.9678 17.048 35.4599 16.5401C34.952 16.0322 34.6666 15.3433 34.6666 14.625C34.6666 13.9067 34.952 13.2178 35.4599 12.7099C35.9678 12.202 36.6567 11.9167 37.375 11.9167ZM26 15.1667C28.8732 15.1667 31.6287 16.308 33.6603 18.3397C35.6919 20.3713 36.8333 23.1268 36.8333 26C36.8333 28.8732 35.6919 31.6287 33.6603 33.6603C31.6287 35.692 28.8732 36.8333 26 36.8333C23.1268 36.8333 20.3713 35.692 18.3397 33.6603C16.308 31.6287 15.1666 28.8732 15.1666 26C15.1666 23.1268 16.308 20.3713 18.3397 18.3397C20.3713 16.308 23.1268 15.1667 26 15.1667ZM26 19.5C24.2761 19.5 22.6228 20.1848 21.4038 21.4038C20.1848 22.6228 19.5 24.2761 19.5 26C19.5 27.7239 20.1848 29.3772 21.4038 30.5962C22.6228 31.8152 24.2761 32.5 26 32.5C27.7239 32.5 29.3772 31.8152 30.5962 30.5962C31.8152 29.3772 32.5 27.7239 32.5 26C32.5 24.2761 31.8152 22.6228 30.5962 21.4038C29.3772 20.1848 27.7239 19.5 26 19.5Z" fill="#E9E9E9"/>
</svg>
