<svg width="53" height="53" viewBox="0 0 53 53" fill="none" xmlns="http://www.w3.org/2000/svg">
<path d="M16.2402 24.528V20.9836C16.2402 20.7738 16.2402 20.6899 16.5141 20.6899C18.8615 20.6899 20.7695 20.5508 21.7169 21.1095C22.6665 21.666 22.7062 22.4345 22.7217 22.6641C22.7371 22.8938 22.7305 23.2228 22.2889 24.0245C21.8472 24.8261 19.8707 24.8415 18.4442 24.8415H16.556C16.3242 24.8415 16.2402 24.7576 16.2402 24.528ZM22.746 28.2424C22.9647 28.5216 23.1208 28.8445 23.2038 29.1894C23.2867 29.5342 23.2945 29.8928 23.2266 30.2409C23.1588 30.589 23.0168 30.9185 22.8104 31.2069C22.6041 31.4954 22.3381 31.736 22.0305 31.9126C21.5787 32.1027 21.094 32.2025 20.6039 32.2063H16.5339C16.3242 32.2063 16.2402 32.2063 16.2402 31.9347V27.7389C16.2402 27.5291 16.2402 27.4452 16.5141 27.4452H19.2193C20.8976 27.4452 21.9466 27.2994 22.746 28.2424Z" fill="#E9E9E9"/>
<path d="M37.5175 26.299C37.405 26.0337 37.2343 25.7971 37.0179 25.6067C36.8015 25.4164 36.5451 25.2771 36.2676 25.1993C35.713 25.0478 35.1325 25.0157 34.5645 25.1051C33.9965 25.1946 33.454 25.4036 32.9728 25.7183C32.4932 26.2028 32.1833 26.8295 32.0895 27.5048C32.0895 27.7411 32.0895 27.7853 32.3699 27.7853H37.6037C37.862 27.7853 37.862 27.7853 37.84 27.4606C37.8152 27.0548 37.7068 26.6589 37.5175 26.299ZM37.5175 26.299C37.405 26.0337 37.232 25.7971 37.0157 25.6067C36.7993 25.4164 36.5451 25.2771 36.2676 25.1993C35.713 25.0478 35.1325 25.0157 34.5645 25.1051C33.9965 25.1946 33.454 25.4036 32.9728 25.7183C32.4932 26.2028 32.1811 26.8295 32.0872 27.5048C32.0872 27.7411 32.0872 27.7853 32.3677 27.7853H37.6037C37.862 27.7853 37.862 27.7853 37.84 27.4606C37.8152 27.0548 37.7024 26.6589 37.5131 26.299M39.971 5.52084H14.1335C11.8493 5.52084 9.6587 6.42822 8.04354 8.04338C6.42838 9.65854 5.521 11.8492 5.521 14.1333V39.9708C5.521 42.255 6.42838 44.4456 8.04354 46.0608C9.6587 47.6759 11.8493 48.5833 14.1335 48.5833H39.971C42.2552 48.5833 44.4458 47.6759 46.061 46.0608C47.6761 44.4456 48.5835 42.255 48.5835 39.9708V14.1333C48.5835 11.8492 47.6761 9.65854 46.061 8.04338C44.4458 6.42822 42.2552 5.52084 39.971 5.52084ZM31.5307 19.2346C31.5307 19.0645 31.5307 18.9983 31.7251 18.9983H38.7012V20.8091C38.7012 20.8091 38.7078 20.9372 38.593 20.9372H31.8333C31.5307 20.9372 31.5307 20.9372 31.5307 20.6369V19.2346ZM25.0714 35.0617C22.4214 36.5038 17.9672 35.923 12.6915 35.923V18.073H21.1096C23.2627 18.073 25.8244 18.6118 26.5134 20.893C26.8712 21.8894 26.8494 22.9826 26.4522 23.9639C26.0551 24.9453 25.3103 25.7459 24.3603 26.2129C25.236 26.537 26.0006 27.1052 26.5634 27.8502C27.1263 28.5952 27.464 29.4859 27.5365 30.4168C27.609 31.3478 27.4133 32.28 26.9725 33.1032C26.5317 33.9263 25.8643 34.606 25.0493 35.0617H25.0714ZM41.1127 29.9803H32.5002C32.2639 29.9803 32.0475 30.1084 32.0895 30.411C32.3478 31.6808 32.9286 33.0168 34.2448 33.2111C34.9398 33.418 35.684 33.3862 36.3588 33.1208C37.0336 32.8554 37.6001 32.3718 37.968 31.747C37.968 31.747 38.0762 31.6167 38.1403 31.6167H40.9405C40.9405 31.6167 41.1127 31.6167 41.0685 31.7669C40.7732 32.6031 40.3362 33.3822 39.7767 34.0702C39.0283 34.785 38.1252 35.3178 37.1376 35.6272C36.1499 35.9365 35.1043 36.0141 34.0818 35.8539C33.0593 35.6937 32.0875 35.3 31.2418 34.7035C30.3961 34.1069 29.6993 33.3234 29.2054 32.4139C28.9016 31.8074 28.7122 31.1501 28.6467 30.475C28.2626 28.7781 28.5561 26.9983 29.4648 25.5146C30.3735 24.0309 31.8255 22.9606 33.5116 22.5316C38.3987 21.476 41.4992 24.8349 41.4992 29.5718C41.5064 29.6272 41.5008 29.6834 41.4828 29.7363C41.4649 29.7892 41.435 29.8372 41.3955 29.8767C41.356 29.9162 41.308 29.9461 41.2551 29.964C41.2023 29.982 41.146 29.9876 41.0906 29.9803H41.1127ZM36.2897 25.1993C35.7356 25.0456 35.1546 25.0139 34.5871 25.1065C34.0195 25.1949 33.5116 25.3031 32.9949 25.7183C32.4781 26.1312 32.2043 26.829 32.1115 27.5048C32.1115 27.7411 32.1115 27.7853 32.392 27.7853H37.6037C37.862 27.7853 37.862 27.7853 37.84 27.4606C37.8152 27.0548 37.7068 26.6589 37.5175 26.299C37.405 26.0337 37.2343 25.7971 37.0179 25.6067C36.8015 25.4164 36.5451 25.2771 36.2676 25.1993H36.2897Z" fill="#E9E9E9"/>
</svg>
