<svg width="44" height="44" viewBox="0 0 44 44" fill="none" xmlns="http://www.w3.org/2000/svg">
<path d="M32.5175 21.299C32.405 21.0337 32.2343 20.7971 32.0179 20.6067C31.8015 20.4164 31.5451 20.2771 31.2676 20.1993C30.713 20.0478 30.1325 20.0157 29.5645 20.1051C28.9965 20.1946 28.454 20.4036 27.9728 20.7183C27.4932 21.2028 27.1833 21.8295 27.0895 22.5048C27.0895 22.7411 27.0895 22.7853 27.3699 22.7853H32.6037C32.862 22.7853 32.862 22.7853 32.84 22.4606C32.8152 22.0548 32.7068 21.6589 32.5175 21.299ZM32.5175 21.299C32.405 21.0337 32.232 20.7971 32.0157 20.6067C31.7993 20.4164 31.5451 20.2771 31.2676 20.1993C30.713 20.0478 30.1325 20.0157 29.5645 20.1051C28.9965 20.1946 28.454 20.4036 27.9728 20.7183C27.4932 21.2028 27.1811 21.8295 27.0872 22.5048C27.0872 22.7411 27.0872 22.7853 27.3677 22.7853H32.6037C32.862 22.7853 32.862 22.7853 32.84 22.4606C32.8152 22.0548 32.7024 21.6589 32.5131 21.299M34.971 0.520836H9.1335C6.84932 0.520836 4.6587 1.42822 3.04354 3.04338C1.42838 4.65854 0.520996 6.84916 0.520996 9.13334V34.9708C0.520996 37.255 1.42838 39.4456 3.04354 41.0608C4.6587 42.6759 6.84932 43.5833 9.1335 43.5833H34.971C37.2552 43.5833 39.4458 42.6759 41.061 41.0608C42.6761 39.4456 43.5835 37.255 43.5835 34.9708V9.13334C43.5835 6.84916 42.6761 4.65854 41.061 3.04338C39.4458 1.42822 37.2552 0.520836 34.971 0.520836ZM26.5307 14.2346C26.5307 14.0645 26.5307 13.9983 26.7251 13.9983H33.7012V15.8091C33.7012 15.8091 33.7078 15.9372 33.593 15.9372H26.8333C26.5307 15.9372 26.5307 15.9372 26.5307 15.6369V14.2346ZM20.0714 30.0617C17.4214 31.5038 12.9672 30.923 7.69145 30.923V13.073H16.1096C18.2627 13.073 20.8244 13.6118 21.5134 15.893C21.8712 16.8894 21.8494 17.9826 21.4522 18.9639C21.0551 19.9453 20.3103 20.7459 19.3603 21.2129C20.236 21.537 21.0006 22.1052 21.5634 22.8502C22.1263 23.5952 22.464 24.4859 22.5365 25.4168C22.609 26.3478 22.4133 27.28 21.9725 28.1032C21.5317 28.9263 20.8643 29.606 20.0493 30.0617H20.0714ZM36.1127 24.9803H27.5002C27.2639 24.9803 27.0475 25.1084 27.0895 25.411C27.3478 26.6808 27.9286 28.0168 29.2448 28.2111C29.9398 28.418 30.684 28.3862 31.3588 28.1208C32.0336 27.8554 32.6001 27.3718 32.968 26.747C32.968 26.747 33.0762 26.6167 33.1403 26.6167H35.9405C35.9405 26.6167 36.1127 26.6167 36.0685 26.7669C35.7732 27.6031 35.3362 28.3822 34.7767 29.0702C34.0283 29.785 33.1252 30.3178 32.1376 30.6272C31.1499 30.9365 30.1043 31.0141 29.0818 30.8539C28.0593 30.6937 27.0875 30.3 26.2418 29.7035C25.3961 29.1069 24.6993 28.3234 24.2054 27.4139C23.9016 26.8074 23.7122 26.1501 23.6467 25.475C23.2626 23.7781 23.5561 21.9983 24.4648 20.5146C25.3735 19.0309 26.8255 17.9606 28.5116 17.5316C33.3987 16.476 36.4992 19.8349 36.4992 24.5718C36.5064 24.6272 36.5008 24.6834 36.4828 24.7363C36.4649 24.7892 36.435 24.8372 36.3955 24.8767C36.356 24.9162 36.308 24.9461 36.2551 24.964C36.2023 24.982 36.146 24.9876 36.0906 24.9803H36.1127ZM31.2897 20.1993C30.7356 20.0456 30.1546 20.0139 29.5871 20.1065C29.0195 20.1949 28.5116 20.3031 27.9949 20.7183C27.4781 21.1312 27.2043 21.829 27.1115 22.5048C27.1115 22.7411 27.1115 22.7853 27.392 22.7853H32.6037C32.862 22.7853 32.862 22.7853 32.84 22.4606C32.8152 22.0548 32.7068 21.6589 32.5175 21.299C32.405 21.0337 32.2343 20.7971 32.0179 20.6067C31.8015 20.4164 31.5451 20.2771 31.2676 20.1993H31.2897Z" fill="#E9E9E9"/>
</svg>
