<svg width="960" height="9" viewBox="0 0 960 9" fill="none" xmlns="http://www.w3.org/2000/svg">
<g clip-path="url(#clip0_120_540)">
<path d="M40 8C40 3.58172 43.5817 0 48 0H49C53.4183 0 57 3.58172 57 8V9H40V8Z" fill="#E9E9E9"/>
<path d="M0 8C0 3.58172 3.58172 0 8 0H9C13.4183 0 17 3.58172 17 8V9H0V8Z" fill="#E9E9E9"/>
<path d="M475 8C475 3.58172 478.582 0 483 0H484C488.418 0 492 3.58172 492 8V9H475V8Z" fill="#E9E9E9"/>
<path d="M135 8C135 3.58172 138.582 0 143 0H144C148.418 0 152 3.58172 152 8V9H135V8Z" fill="#E9E9E9"/>
<path d="M297 8C297 3.58172 300.582 0 305 0H306C310.418 0 314 3.58172 314 8V9H297V8Z" fill="#E9E9E9"/>
<path d="M339 8C339 3.58172 342.582 0 347 0H348C352.418 0 356 3.58172 356 8V9H339V8Z" fill="#E9E9E9"/>
<path d="M943 8C943 3.58172 946.582 0 951 0H952C956.418 0 960 3.58172 960 8V9H943V8Z" fill="#E9E9E9"/>
<path d="M765 8C765 3.58172 768.582 0 773 0H774C778.418 0 782 3.58172 782 8V9H765V8Z" fill="#E9E9E9"/>
<path d="M807 8C807 3.58172 810.582 0 815 0H816C820.418 0 824 3.58172 824 8V9H807V8Z" fill="#E9E9E9"/>
<path d="M620 8C620 3.58172 623.582 0 628 0H629C633.418 0 637 3.58172 637 8V9H620V8Z" fill="#E9E9E9"/>
<path d="M662 8C662 3.58172 665.582 0 670 0H671C675.418 0 679 3.58172 679 8V9H662V8Z" fill="#E9E9E9"/>
</g>
<defs>
<clipPath id="clip0_120_540">
<rect width="960" height="9" fill="white"/>
</clipPath>
</defs>
</svg>
