<svg width="52" height="52" viewBox="0 0 52 52" fill="none" xmlns="http://www.w3.org/2000/svg">
<path d="M16.9002 4.33334H35.1002C42.0335 4.33334 47.6668 9.96667 47.6668 16.9V35.1C47.6668 38.4329 46.3428 41.6293 43.9861 43.986C41.6294 46.3427 38.4331 47.6667 35.1002 47.6667H16.9002C9.96683 47.6667 4.3335 42.0333 4.3335 35.1V16.9C4.3335 13.5671 5.65748 10.3707 8.01419 8.01403C10.3709 5.65732 13.5673 4.33334 16.9002 4.33334ZM16.4668 8.66667C14.3981 8.66667 12.4142 9.48845 10.9514 10.9512C9.48861 12.414 8.66683 14.398 8.66683 16.4667V35.5333C8.66683 39.845 12.1552 43.3333 16.4668 43.3333H35.5335C37.6022 43.3333 39.5861 42.5116 41.0489 41.0488C42.5117 39.586 43.3335 37.602 43.3335 35.5333V16.4667C43.3335 12.155 39.8452 8.66667 35.5335 8.66667H16.4668ZM37.3752 11.9167C38.0935 11.9167 38.7823 12.202 39.2902 12.7099C39.7982 13.2178 40.0835 13.9067 40.0835 14.625C40.0835 15.3433 39.7982 16.0322 39.2902 16.5401C38.7823 17.048 38.0935 17.3333 37.3752 17.3333C36.6569 17.3333 35.968 17.048 35.4601 16.5401C34.9522 16.0322 34.6668 15.3433 34.6668 14.625C34.6668 13.9067 34.9522 13.2178 35.4601 12.7099C35.968 12.202 36.6569 11.9167 37.3752 11.9167ZM26.0002 15.1667C28.8733 15.1667 31.6288 16.308 33.6605 18.3397C35.6921 20.3713 36.8335 23.1268 36.8335 26C36.8335 28.8732 35.6921 31.6287 33.6605 33.6603C31.6288 35.692 28.8733 36.8333 26.0002 36.8333C23.127 36.8333 20.3715 35.692 18.3398 33.6603C16.3082 31.6287 15.1668 28.8732 15.1668 26C15.1668 23.1268 16.3082 20.3713 18.3398 18.3397C20.3715 16.308 23.127 15.1667 26.0002 15.1667ZM26.0002 19.5C24.2763 19.5 22.623 20.1848 21.404 21.4038C20.185 22.6228 19.5002 24.2761 19.5002 26C19.5002 27.7239 20.185 29.3772 21.404 30.5962C22.623 31.8152 24.2763 32.5 26.0002 32.5C27.7241 32.5 29.3774 31.8152 30.5964 30.5962C31.8153 29.3772 32.5002 27.7239 32.5002 26C32.5002 24.2761 31.8153 22.6228 30.5964 21.4038C29.3774 20.1848 27.7241 19.5 26.0002 19.5Z" fill="#E9E9E9"/>
</svg>
