<svg width="42" height="42" viewBox="0 0 42 42" fill="none" xmlns="http://www.w3.org/2000/svg">
<path d="M36.75 0.75C37.9435 0.75 39.0881 1.22411 39.932 2.06802C40.7759 2.91193 41.25 4.05653 41.25 5.25V36.75C41.25 37.9435 40.7759 39.0881 39.932 39.932C39.0881 40.7759 37.9435 41.25 36.75 41.25H5.25C4.05653 41.25 2.91193 40.7759 2.06802 39.932C1.22411 39.0881 0.75 37.9435 0.75 36.75V5.25C0.75 4.05653 1.22411 2.91193 2.06802 2.06802C2.91193 1.22411 4.05653 0.75 5.25 0.75H36.75ZM35.625 35.625V23.7C35.625 21.7546 34.8522 19.889 33.4766 18.5134C32.101 17.1378 30.2354 16.365 28.29 16.365C26.3775 16.365 24.15 17.535 23.07 19.29V16.7925H16.7925V35.625H23.07V24.5325C23.07 22.8 24.465 21.3825 26.1975 21.3825C27.0329 21.3825 27.8341 21.7144 28.4249 22.3051C29.0156 22.8959 29.3475 23.6971 29.3475 24.5325V35.625H35.625ZM9.48 13.26C10.4825 13.26 11.444 12.8618 12.1529 12.1529C12.8618 11.444 13.26 10.4825 13.26 9.48C13.26 7.3875 11.5725 5.6775 9.48 5.6775C8.47151 5.6775 7.50433 6.07812 6.79123 6.79123C6.07812 7.50433 5.6775 8.47151 5.6775 9.48C5.6775 11.5725 7.3875 13.26 9.48 13.26ZM12.6075 35.625V16.7925H6.375V35.625H12.6075Z" fill="#E9E9E9"/>
</svg>
