<svg width="160" height="159" viewBox="0 0 160 159" fill="none" xmlns="http://www.w3.org/2000/svg">
<path d="M80 9.5399e-07C95.8225 1.14267e-06 111.29 4.6626 124.446 13.3982C137.602 22.1337 147.855 34.5499 153.91 49.0767C159.965 63.6034 161.55 79.5882 158.463 95.0097C155.376 110.431 147.757 124.597 136.569 135.715C125.38 146.833 111.126 154.405 95.6072 157.472C80.0887 160.54 64.0034 158.966 49.3853 152.948C34.7672 146.931 22.2729 136.742 13.4824 123.668C4.69192 110.594 5.71844e-07 95.2236 9.48028e-07 79.5L80 79.5L80 9.5399e-07Z" fill="#ED1C24"/>
</svg>
