<svg width="960" height="194" viewBox="0 0 960 194" fill="none" xmlns="http://www.w3.org/2000/svg">
<path d="M475.364 2.47421L659.941 187.052" stroke="#E9E9E9" stroke-width="2"/>
<path d="M477.343 12.866L656.477 192" stroke="#E9E9E9" stroke-width="2"/>
<path d="M471.405 15.8351L647.57 192" stroke="#E9E9E9" stroke-width="2"/>
<path d="M471.405 24.7423L632.724 185.072" stroke="#E9E9E9" stroke-width="2"/>
<path d="M471.405 33.6495L629.755 192" stroke="#E9E9E9" stroke-width="2"/>
<path d="M471.405 42.5567L620.848 192" stroke="#E9E9E9" stroke-width="2"/>
<path d="M471.405 51.4639L605.013 184.082" stroke="#E9E9E9" stroke-width="2"/>
<path d="M469.425 58.3918L603.034 192" stroke="#E9E9E9" stroke-width="2"/>
<path d="M482.292 80.1649L595.116 192" stroke="#E9E9E9" stroke-width="2"/>
<path d="M489.219 96L578.291 184.082" stroke="#E9E9E9" stroke-width="2"/>
<path d="M489.219 103.918L578.291 192" stroke="#E9E9E9" stroke-width="2"/>
<path d="M495.157 117.773L570.374 192" stroke="#E9E9E9" stroke-width="2"/>
<path d="M475.858 2.47421L291.281 187.052" stroke="#E9E9E9" stroke-width="2"/>
<path d="M473.879 12.866L294.745 192" stroke="#E9E9E9" stroke-width="2"/>
<path d="M479.817 15.8351L303.652 192" stroke="#E9E9E9" stroke-width="2"/>
<path d="M479.817 24.7423L318.498 185.072" stroke="#E9E9E9" stroke-width="2"/>
<path d="M479.817 33.6495L321.467 192" stroke="#E9E9E9" stroke-width="2"/>
<path d="M479.817 42.5567L330.374 192" stroke="#E9E9E9" stroke-width="2"/>
<path d="M479.817 51.4639L346.209 184.082" stroke="#E9E9E9" stroke-width="2"/>
<path d="M481.796 58.3918L348.188 192" stroke="#E9E9E9" stroke-width="2"/>
<path d="M468.931 80.1649L356.106 192" stroke="#E9E9E9" stroke-width="2"/>
<path d="M462.003 96L372.931 184.082" stroke="#E9E9E9" stroke-width="2"/>
<path d="M462.003 103.918L372.931 192" stroke="#E9E9E9" stroke-width="2"/>
<path d="M456.064 117.773L380.848 192" stroke="#E9E9E9" stroke-width="2"/>
<path d="M438.745 185.567L475.208 49.4845M475.208 49.4845V0.989685M475.208 49.4845L511.671 185.567" stroke="#ED1C24" stroke-width="12" stroke-linejoin="round"/>
<path d="M736.642 1.48453L921.219 186.062" stroke="#E9E9E9" stroke-width="2"/>
<path d="M738.621 11.8763L917.755 191.01" stroke="#E9E9E9" stroke-width="2"/>
<path d="M732.683 14.8454L908.848 191.01" stroke="#E9E9E9" stroke-width="2"/>
<path d="M732.683 23.7526L894.003 184.082" stroke="#E9E9E9" stroke-width="2"/>
<path d="M732.683 32.6598L891.034 191.01" stroke="#E9E9E9" stroke-width="2"/>
<path d="M732.683 41.567L882.126 191.01" stroke="#E9E9E9" stroke-width="2"/>
<path d="M732.683 50.4742L866.291 183.093" stroke="#E9E9E9" stroke-width="2"/>
<path d="M730.704 57.4021L864.312 191.01" stroke="#E9E9E9" stroke-width="2"/>
<path d="M743.57 79.1753L856.395 191.01" stroke="#E9E9E9" stroke-width="2"/>
<path d="M750.498 95.0103L839.57 183.093" stroke="#E9E9E9" stroke-width="2"/>
<path d="M750.498 102.928L839.57 191.01" stroke="#E9E9E9" stroke-width="2"/>
<path d="M756.436 116.784L831.652 191.01" stroke="#E9E9E9" stroke-width="2"/>
<path d="M737.137 1.48453L552.559 186.062" stroke="#E9E9E9" stroke-width="2"/>
<path d="M735.157 11.8763L556.023 191.01" stroke="#E9E9E9" stroke-width="2"/>
<path d="M741.096 14.8454L564.931 191.01" stroke="#E9E9E9" stroke-width="2"/>
<path d="M741.096 23.7526L579.776 184.082" stroke="#E9E9E9" stroke-width="2"/>
<path d="M741.096 32.6598L582.745 191.01" stroke="#E9E9E9" stroke-width="2"/>
<path d="M741.096 41.567L591.652 191.01" stroke="#E9E9E9" stroke-width="2"/>
<path d="M741.096 50.4742L607.487 183.093" stroke="#E9E9E9" stroke-width="2"/>
<path d="M743.075 57.4021L609.466 191.01" stroke="#E9E9E9" stroke-width="2"/>
<path d="M730.209 79.1753L617.384 191.01" stroke="#E9E9E9" stroke-width="2"/>
<path d="M723.281 95.0103L634.209 183.093" stroke="#E9E9E9" stroke-width="2"/>
<path d="M723.281 102.928L634.209 191.01" stroke="#E9E9E9" stroke-width="2"/>
<path d="M717.343 116.784L642.126 191.01" stroke="#E9E9E9" stroke-width="2"/>
<path d="M700.023 184.577L736.486 48.4948M736.486 48.4948V0M736.486 48.4948L772.95 184.577" stroke="#ED1C24" stroke-width="12" stroke-linejoin="round"/>
<path d="M960 188H0" stroke="#ED1C24" stroke-width="12"/>
</svg>
