<svg width="960" height="195" viewBox="0 0 960 195" fill="none" xmlns="http://www.w3.org/2000/svg">
<path d="M474 2.5L660.5 189" stroke="#E9E9E9" stroke-width="2"/>
<path d="M476 13L657 194" stroke="#E9E9E9" stroke-width="2"/>
<path d="M470 16L648 194" stroke="#E9E9E9" stroke-width="2"/>
<path d="M470 25L633 187" stroke="#E9E9E9" stroke-width="2"/>
<path d="M470 34L630 194" stroke="#E9E9E9" stroke-width="2"/>
<path d="M470 43L621 194" stroke="#E9E9E9" stroke-width="2"/>
<path d="M470 52L605 186" stroke="#E9E9E9" stroke-width="2"/>
<path d="M468 59L603 194" stroke="#E9E9E9" stroke-width="2"/>
<path d="M481 81L595 194" stroke="#E9E9E9" stroke-width="2"/>
<path d="M488 97L578 186" stroke="#E9E9E9" stroke-width="2"/>
<path d="M488 105L578 194" stroke="#E9E9E9" stroke-width="2"/>
<path d="M494 119L570 194" stroke="#E9E9E9" stroke-width="2"/>
<path d="M474.5 2.5L288 189" stroke="#E9E9E9" stroke-width="2"/>
<path d="M472.5 13L291.5 194" stroke="#E9E9E9" stroke-width="2"/>
<path d="M478.5 16L300.5 194" stroke="#E9E9E9" stroke-width="2"/>
<path d="M478.5 25L315.5 187" stroke="#E9E9E9" stroke-width="2"/>
<path d="M478.5 34L318.5 194" stroke="#E9E9E9" stroke-width="2"/>
<path d="M478.5 43L327.5 194" stroke="#E9E9E9" stroke-width="2"/>
<path d="M478.5 52L343.5 186" stroke="#E9E9E9" stroke-width="2"/>
<path d="M480.5 59L345.5 194" stroke="#E9E9E9" stroke-width="2"/>
<path d="M467.5 81L353.5 194" stroke="#E9E9E9" stroke-width="2"/>
<path d="M460.5 97L370.5 186" stroke="#E9E9E9" stroke-width="2"/>
<path d="M460.5 105L370.5 194" stroke="#E9E9E9" stroke-width="2"/>
<path d="M454.5 119L378.5 194" stroke="#E9E9E9" stroke-width="2"/>
<path d="M437 187.5L473.843 50M473.843 50V1M473.843 50L510.686 187.5" stroke="#ED1C24" stroke-width="12" stroke-linejoin="round"/>
<path d="M738 1.5L924.5 188" stroke="#E9E9E9" stroke-width="2"/>
<path d="M740 12L921 193" stroke="#E9E9E9" stroke-width="2"/>
<path d="M734 15L912 193" stroke="#E9E9E9" stroke-width="2"/>
<path d="M734 24L897 186" stroke="#E9E9E9" stroke-width="2"/>
<path d="M734 33L894 193" stroke="#E9E9E9" stroke-width="2"/>
<path d="M734 42L885 193" stroke="#E9E9E9" stroke-width="2"/>
<path d="M734 51L869 185" stroke="#E9E9E9" stroke-width="2"/>
<path d="M732 58L867 193" stroke="#E9E9E9" stroke-width="2"/>
<path d="M745 80L859 193" stroke="#E9E9E9" stroke-width="2"/>
<path d="M752 96L842 185" stroke="#E9E9E9" stroke-width="2"/>
<path d="M752 104L842 193" stroke="#E9E9E9" stroke-width="2"/>
<path d="M758 118L834 193" stroke="#E9E9E9" stroke-width="2"/>
<path d="M738.5 1.5L552 188" stroke="#E9E9E9" stroke-width="2"/>
<path d="M736.5 12L555.5 193" stroke="#E9E9E9" stroke-width="2"/>
<path d="M742.5 15L564.5 193" stroke="#E9E9E9" stroke-width="2"/>
<path d="M742.5 24L579.5 186" stroke="#E9E9E9" stroke-width="2"/>
<path d="M742.5 33L582.5 193" stroke="#E9E9E9" stroke-width="2"/>
<path d="M742.5 42L591.5 193" stroke="#E9E9E9" stroke-width="2"/>
<path d="M742.5 51L607.5 185" stroke="#E9E9E9" stroke-width="2"/>
<path d="M744.5 58L609.5 193" stroke="#E9E9E9" stroke-width="2"/>
<path d="M731.5 80L617.5 193" stroke="#E9E9E9" stroke-width="2"/>
<path d="M724.5 96L634.5 185" stroke="#E9E9E9" stroke-width="2"/>
<path d="M724.5 104L634.5 193" stroke="#E9E9E9" stroke-width="2"/>
<path d="M718.5 118L642.5 193" stroke="#E9E9E9" stroke-width="2"/>
<path d="M701 186.5L737.843 49M737.843 49V0M737.843 49L774.686 186.5" stroke="#ED1C24" stroke-width="12" stroke-linejoin="round"/>
<path d="M960 188H0" stroke="#ED1C24" stroke-width="12"/>
</svg>
