<svg width="119" height="119" viewBox="0 0 119 119" fill="none" xmlns="http://www.w3.org/2000/svg">
<path d="M15.4624 25.3256L31.7917 30.3531C32.3259 30.5177 32.8391 30.0449 32.7189 29.4988L29.0448 12.8129C27.8394 7.33864 34.6346 3.77827 38.4494 7.88542L50.0772 20.4039C50.4576 20.8136 51.1386 20.6605 51.3075 20.1278L56.4685 3.84034C58.1616 -1.50328 65.8269 -1.18893 67.0771 4.27524L70.8876 20.9305C71.0121 21.4755 71.6783 21.6834 72.0912 21.3066L84.7047 9.78164C88.8428 6.00075 95.3241 10.1054 93.6743 15.4624L88.6469 31.7917C88.4823 32.3259 88.9551 32.8391 89.5011 32.7189L106.187 29.0448C111.661 27.8394 115.222 34.6346 111.115 38.4494L98.5961 50.0772C98.1864 50.4576 98.3395 51.1386 98.8722 51.3075L115.16 56.4685C120.503 58.1616 120.189 65.8269 114.725 67.0771L98.0695 70.8876C97.5245 71.0121 97.3166 71.6783 97.6934 72.0912L109.218 84.7047C112.999 88.8428 108.895 95.3241 103.538 93.6743L87.2083 88.6469C86.6741 88.4823 86.1609 88.9551 86.2811 89.5011L89.9552 106.187C91.1606 111.661 84.3654 115.222 80.5506 111.115L68.9228 98.5961C68.5424 98.1864 67.8614 98.3395 67.6925 98.8722L62.5315 115.16C60.8384 120.503 53.1731 120.189 51.9229 114.725L48.1124 98.0695C47.9879 97.5245 47.3216 97.3166 46.9088 97.6934L34.2953 109.218C30.1571 112.999 23.6759 108.895 25.3256 103.538L30.3531 87.2083C30.5177 86.6741 30.0449 86.1609 29.4988 86.2811L12.8129 89.9552C7.33864 91.1606 3.77827 84.3654 7.88542 80.5506L20.4039 68.9228C20.8136 68.5424 20.6605 67.8614 20.1278 67.6925L3.84034 62.5315C-1.50328 60.8384 -1.18893 53.1731 4.27524 51.9229L20.9305 48.1124C21.4755 47.9879 21.6834 47.3216 21.3066 46.9088L9.78164 34.2953C6.00075 30.1571 10.1054 23.6759 15.4624 25.3256Z" fill="#ED1C24"/>
</svg>
